<svg width="88" height="32" viewBox="0 0 88 32" fill="none" xmlns="http://www.w3.org/2000/svg">
<path d="M35.7003 18.084C35.1883 18.084 34.7823 17.94 34.4823 17.652C34.1823 17.36 34.0323 16.94 34.0323 16.392V15.408C34.0323 14.86 34.1823 14.442 34.4823 14.154C34.7823 13.862 35.1883 13.716 35.7003 13.716C36.2043 13.716 36.5923 13.856 36.8643 14.136C37.1403 14.416 37.2783 14.798 37.2783 15.282V15.318H36.6363V15.264C36.6363 14.98 36.5583 14.748 36.4023 14.568C36.2503 14.388 36.0163 14.298 35.7003 14.298C35.3803 14.298 35.1303 14.396 34.9503 14.592C34.7703 14.784 34.6803 15.052 34.6803 15.396V16.404C34.6803 16.744 34.7703 17.012 34.9503 17.208C35.1303 17.404 35.3803 17.502 35.7003 17.502C36.0163 17.502 36.2503 17.412 36.4023 17.232C36.5583 17.048 36.6363 16.816 36.6363 16.536V16.434H37.2783V16.518C37.2783 17.002 37.1403 17.384 36.8643 17.664C36.5923 17.944 36.2043 18.084 35.7003 18.084ZM37.8758 18V13.8H39.0938L40.0118 17.568H40.1078L41.0258 13.8H42.2438V18H41.6138V14.256H41.5178L40.6058 18H39.5138L38.6018 14.256H38.5058V18H37.8758ZM44.2532 18V17.424H44.8172V14.376H44.2532V13.8H45.9332C46.4932 13.8 46.9212 13.942 47.2172 14.226C47.5172 14.51 47.6672 14.938 47.6672 15.51V16.296C47.6672 16.868 47.5172 17.296 47.2172 17.58C46.9212 17.86 46.4932 18 45.9332 18H44.2532ZM45.4712 17.412H45.9392C46.3032 17.412 46.5732 17.32 46.7492 17.136C46.9252 16.952 47.0132 16.678 47.0132 16.314V15.486C47.0132 15.118 46.9252 14.844 46.7492 14.664C46.5732 14.484 46.3032 14.394 45.9392 14.394H45.4712V17.412ZM49.2155 18.084C49.0035 18.084 48.8135 18.048 48.6455 17.976C48.4815 17.904 48.3495 17.798 48.2495 17.658C48.1535 17.518 48.1055 17.348 48.1055 17.148C48.1055 16.944 48.1535 16.776 48.2495 16.644C48.3495 16.508 48.4835 16.406 48.6515 16.338C48.8235 16.27 49.0175 16.236 49.2335 16.236H50.1335V16.044C50.1335 15.872 50.0815 15.734 49.9775 15.63C49.8735 15.526 49.7135 15.474 49.4975 15.474C49.2855 15.474 49.1235 15.524 49.0115 15.624C48.8995 15.724 48.8255 15.854 48.7895 16.014L48.2135 15.828C48.2615 15.668 48.3375 15.524 48.4415 15.396C48.5495 15.264 48.6915 15.158 48.8675 15.078C49.0435 14.998 49.2555 14.958 49.5035 14.958C49.8875 14.958 50.1895 15.056 50.4095 15.252C50.6295 15.448 50.7395 15.726 50.7395 16.086V17.304C50.7395 17.424 50.7955 17.484 50.9075 17.484H51.1595V18H50.6975C50.5575 18 50.4435 17.964 50.3555 17.892C50.2675 17.82 50.2235 17.722 50.2235 17.598V17.58H50.1335C50.1015 17.64 50.0535 17.71 49.9895 17.79C49.9255 17.87 49.8315 17.94 49.7075 18C49.5835 18.056 49.4195 18.084 49.2155 18.084ZM49.3055 17.574C49.5535 17.574 49.7535 17.504 49.9055 17.364C50.0575 17.22 50.1335 17.024 50.1335 16.776V16.716H49.2695C49.1055 16.716 48.9735 16.752 48.8735 16.824C48.7735 16.892 48.7235 16.994 48.7235 17.13C48.7235 17.266 48.7755 17.374 48.8795 17.454C48.9835 17.534 49.1255 17.574 49.3055 17.574ZM52.5453 18C52.3653 18 52.2213 17.946 52.1133 17.838C52.0093 17.73 51.9573 17.586 51.9573 17.406V15.564H51.1413V15.042H51.9573V14.064H52.5753V15.042H53.4573V15.564H52.5753V17.298C52.5753 17.418 52.6313 17.478 52.7433 17.478H53.3613V18H52.5453ZM54.9755 18.084C54.7635 18.084 54.5735 18.048 54.4055 17.976C54.2415 17.904 54.1095 17.798 54.0095 17.658C53.9135 17.518 53.8655 17.348 53.8655 17.148C53.8655 16.944 53.9135 16.776 54.0095 16.644C54.1095 16.508 54.2435 16.406 54.4115 16.338C54.5835 16.27 54.7775 16.236 54.9935 16.236H55.8935V16.044C55.8935 15.872 55.8415 15.734 55.7375 15.63C55.6335 15.526 55.4735 15.474 55.2575 15.474C55.0455 15.474 54.8835 15.524 54.7715 15.624C54.6595 15.724 54.5855 15.854 54.5495 16.014L53.9735 15.828C54.0215 15.668 54.0975 15.524 54.2015 15.396C54.3095 15.264 54.4515 15.158 54.6275 15.078C54.8035 14.998 55.0155 14.958 55.2635 14.958C55.6475 14.958 55.9495 15.056 56.1695 15.252C56.3895 15.448 56.4995 15.726 56.4995 16.086V17.304C56.4995 17.424 56.5555 17.484 56.6675 17.484H56.9195V18H56.4575C56.3175 18 56.2035 17.964 56.1155 17.892C56.0275 17.82 55.9835 17.722 55.9835 17.598V17.58H55.8935C55.8615 17.64 55.8135 17.71 55.7495 17.79C55.6855 17.87 55.5915 17.94 55.4675 18C55.3435 18.056 55.1795 18.084 54.9755 18.084ZM55.0655 17.574C55.3135 17.574 55.5135 17.504 55.6655 17.364C55.8175 17.22 55.8935 17.024 55.8935 16.776V16.716H55.0295C54.8655 16.716 54.7335 16.752 54.6335 16.824C54.5335 16.892 54.4835 16.994 54.4835 17.13C54.4835 17.266 54.5355 17.374 54.6395 17.454C54.7435 17.534 54.8855 17.574 55.0655 17.574ZM60.2197 18.084C59.9037 18.084 59.6237 18.028 59.3797 17.916C59.1357 17.804 58.9437 17.64 58.8037 17.424C58.6677 17.204 58.5997 16.938 58.5997 16.626V16.476H59.2417V16.626C59.2417 16.922 59.3297 17.144 59.5057 17.292C59.6857 17.44 59.9237 17.514 60.2197 17.514C60.5197 17.514 60.7457 17.452 60.8977 17.328C61.0497 17.2 61.1257 17.036 61.1257 16.836C61.1257 16.704 61.0897 16.596 61.0177 16.512C60.9457 16.428 60.8437 16.362 60.7117 16.314C60.5797 16.262 60.4217 16.214 60.2377 16.17L60.0157 16.116C59.7477 16.052 59.5137 15.974 59.3137 15.882C59.1177 15.786 58.9657 15.66 58.8577 15.504C58.7497 15.348 58.6957 15.148 58.6957 14.904C58.6957 14.656 58.7557 14.444 58.8757 14.268C58.9997 14.092 59.1697 13.956 59.3857 13.86C59.6017 13.764 59.8557 13.716 60.1477 13.716C60.4397 13.716 60.6997 13.766 60.9277 13.866C61.1597 13.966 61.3417 14.114 61.4737 14.31C61.6057 14.506 61.6717 14.752 61.6717 15.048V15.264H61.0297V15.048C61.0297 14.868 60.9917 14.722 60.9157 14.61C60.8437 14.498 60.7417 14.416 60.6097 14.364C60.4777 14.312 60.3237 14.286 60.1477 14.286C59.8917 14.286 59.6917 14.34 59.5477 14.448C59.4077 14.552 59.3377 14.698 59.3377 14.886C59.3377 15.014 59.3677 15.12 59.4277 15.204C59.4917 15.284 59.5837 15.35 59.7037 15.402C59.8237 15.454 59.9737 15.5 60.1537 15.54L60.3757 15.594C60.6477 15.654 60.8877 15.732 61.0957 15.828C61.3037 15.92 61.4677 16.046 61.5877 16.206C61.7077 16.366 61.7677 16.572 61.7677 16.824C61.7677 17.076 61.7037 17.296 61.5757 17.484C61.4517 17.672 61.2737 17.82 61.0417 17.928C60.8097 18.032 60.5357 18.084 60.2197 18.084ZM63.7019 18.084C63.4019 18.084 63.1399 18.022 62.9159 17.898C62.6919 17.77 62.5159 17.592 62.3879 17.364C62.2639 17.132 62.2019 16.864 62.2019 16.56V16.488C62.2019 16.18 62.2639 15.912 62.3879 15.684C62.5119 15.452 62.6839 15.274 62.9039 15.15C63.1279 15.022 63.3859 14.958 63.6779 14.958C63.9619 14.958 64.2099 15.022 64.4219 15.15C64.6379 15.274 64.8059 15.448 64.9259 15.672C65.0459 15.896 65.1059 16.158 65.1059 16.458V16.692H62.8319C62.8399 16.952 62.9259 17.16 63.0899 17.316C63.2579 17.468 63.4659 17.544 63.7139 17.544C63.9459 17.544 64.1199 17.492 64.2359 17.388C64.3559 17.284 64.4479 17.164 64.5119 17.028L65.0219 17.292C64.9659 17.404 64.8839 17.522 64.7759 17.646C64.6719 17.77 64.5339 17.874 64.3619 17.958C64.1899 18.042 63.9699 18.084 63.7019 18.084ZM62.8379 16.218H64.4759C64.4599 15.994 64.3799 15.82 64.2359 15.696C64.0919 15.568 63.9039 15.504 63.6719 15.504C63.4399 15.504 63.2499 15.568 63.1019 15.696C62.9579 15.82 62.8699 15.994 62.8379 16.218ZM65.7298 18V15.042H66.3358V15.39H66.4318C66.4798 15.266 66.5558 15.176 66.6598 15.12C66.7678 15.06 66.8998 15.03 67.0558 15.03H67.4098V15.588H67.0318C66.8318 15.588 66.6678 15.644 66.5398 15.756C66.4118 15.864 66.3478 16.032 66.3478 16.26V18H65.7298ZM68.6141 18L67.6181 15.042H68.2721L69.0581 17.544H69.1541L69.9401 15.042H70.5941L69.5981 18H68.6141ZM71.0738 18V15.042H71.6918V18H71.0738ZM71.3858 14.64C71.2658 14.64 71.1638 14.602 71.0798 14.526C70.9998 14.446 70.9598 14.344 70.9598 14.22C70.9598 14.096 70.9998 13.996 71.0798 13.92C71.1638 13.84 71.2658 13.8 71.3858 13.8C71.5098 13.8 71.6118 13.84 71.6918 13.92C71.7718 13.996 71.8118 14.096 71.8118 14.22C71.8118 14.344 71.7718 14.446 71.6918 14.526C71.6118 14.602 71.5098 14.64 71.3858 14.64ZM73.863 18.084C73.579 18.084 73.321 18.024 73.089 17.904C72.861 17.784 72.679 17.61 72.543 17.382C72.411 17.154 72.345 16.88 72.345 16.56V16.482C72.345 16.162 72.411 15.89 72.543 15.666C72.679 15.438 72.861 15.264 73.089 15.144C73.321 15.02 73.579 14.958 73.863 14.958C74.147 14.958 74.389 15.01 74.589 15.114C74.789 15.218 74.949 15.356 75.069 15.528C75.193 15.7 75.273 15.89 75.309 16.098L74.709 16.224C74.689 16.092 74.647 15.972 74.583 15.864C74.519 15.756 74.429 15.67 74.313 15.606C74.197 15.542 74.051 15.51 73.875 15.51C73.703 15.51 73.547 15.55 73.407 15.63C73.271 15.706 73.163 15.818 73.083 15.966C73.003 16.11 72.963 16.286 72.963 16.494V16.548C72.963 16.756 73.003 16.934 73.083 17.082C73.163 17.23 73.271 17.342 73.407 17.418C73.547 17.494 73.703 17.532 73.875 17.532C74.135 17.532 74.333 17.466 74.469 17.334C74.605 17.198 74.691 17.026 74.727 16.818L75.327 16.956C75.279 17.16 75.193 17.348 75.069 17.52C74.949 17.692 74.789 17.83 74.589 17.934C74.389 18.034 74.147 18.084 73.863 18.084ZM77.2757 18.084C76.9757 18.084 76.7137 18.022 76.4897 17.898C76.2657 17.77 76.0897 17.592 75.9617 17.364C75.8377 17.132 75.7757 16.864 75.7757 16.56V16.488C75.7757 16.18 75.8377 15.912 75.9617 15.684C76.0857 15.452 76.2577 15.274 76.4777 15.15C76.7017 15.022 76.9597 14.958 77.2517 14.958C77.5357 14.958 77.7837 15.022 77.9957 15.15C78.2117 15.274 78.3797 15.448 78.4997 15.672C78.6197 15.896 78.6797 16.158 78.6797 16.458V16.692H76.4057C76.4137 16.952 76.4997 17.16 76.6637 17.316C76.8317 17.468 77.0397 17.544 77.2877 17.544C77.5197 17.544 77.6937 17.492 77.8097 17.388C77.9297 17.284 78.0217 17.164 78.0857 17.028L78.5957 17.292C78.5397 17.404 78.4577 17.522 78.3497 17.646C78.2457 17.77 78.1077 17.874 77.9357 17.958C77.7637 18.042 77.5437 18.084 77.2757 18.084ZM76.4117 16.218H78.0497C78.0337 15.994 77.9537 15.82 77.8097 15.696C77.6657 15.568 77.4777 15.504 77.2457 15.504C77.0137 15.504 76.8237 15.568 76.6757 15.696C76.5317 15.82 76.4437 15.994 76.4117 16.218ZM80.5157 18.084C80.1397 18.084 79.8277 18 79.5797 17.832C79.3317 17.664 79.1797 17.41 79.1237 17.07L79.6997 16.932C79.7317 17.096 79.7857 17.226 79.8617 17.322C79.9377 17.418 80.0317 17.486 80.1437 17.526C80.2597 17.566 80.3837 17.586 80.5157 17.586C80.7117 17.586 80.8617 17.548 80.9657 17.472C81.0737 17.396 81.1277 17.298 81.1277 17.178C81.1277 17.058 81.0777 16.97 80.9777 16.914C80.8777 16.858 80.7297 16.812 80.5337 16.776L80.3297 16.74C80.1297 16.704 79.9477 16.652 79.7837 16.584C79.6197 16.516 79.4897 16.422 79.3937 16.302C79.2977 16.182 79.2497 16.028 79.2497 15.84C79.2497 15.56 79.3537 15.344 79.5617 15.192C79.7697 15.036 80.0457 14.958 80.3897 14.958C80.7217 14.958 80.9937 15.034 81.2057 15.186C81.4217 15.334 81.5617 15.536 81.6257 15.792L81.0497 15.954C81.0137 15.774 80.9377 15.648 80.8217 15.576C80.7057 15.5 80.5617 15.462 80.3897 15.462C80.2217 15.462 80.0897 15.494 79.9937 15.558C79.8977 15.618 79.8497 15.704 79.8497 15.816C79.8497 15.936 79.8957 16.024 79.9877 16.08C80.0837 16.136 80.2117 16.178 80.3717 16.206L80.5817 16.242C80.7937 16.278 80.9877 16.328 81.1637 16.392C81.3397 16.456 81.4777 16.548 81.5777 16.668C81.6817 16.788 81.7337 16.948 81.7337 17.148C81.7337 17.444 81.6237 17.674 81.4037 17.838C81.1837 18.002 80.8877 18.084 80.5157 18.084Z" fill="black"/>
<path d="M31 16C31 20.9706 25.6274 25 19 25C12.3726 25 7 20.9706 7 16C7 11.0294 12.3726 7 19 7C25.6274 7 31 11.0294 31 16Z" fill="#00B1A7"/>
<path d="M31 16C31 20.9706 25.6274 25 19 25C12.3726 25 7 20.9706 7 16C7 11.0294 12.3726 7 19 7C25.6274 7 31 11.0294 31 16Z" fill="#00B1A7"/>
<path fill-rule="evenodd" clip-rule="evenodd" d="M22.6254 12.7375C23.439 11.3797 25.3412 12.0205 25.3412 13.6524V18.3507H30.5865C30.3798 18.9252 30.0991 19.4771 29.7526 20H25.3412C24.5225 20 23.8588 19.2616 23.8588 18.3507V13.6524L22.6149 15.7284C22.2002 16.4205 21.3873 16.6607 20.7186 16.2887L19.4118 15.5617V18.3507C19.4118 19.2616 18.7481 20 17.9294 20H13.4824C12.6637 20 12 19.2616 12 18.3507V15.052C12 14.1411 12.6637 13.4027 13.4824 13.4027H15.7059C16.1152 13.4027 16.4471 13.7719 16.4471 14.2273C16.4471 14.6828 16.1152 15.052 15.7059 15.052L13.4824 15.052V18.3507H17.9294V15.5617C17.9294 14.3356 19.0891 13.5382 20.0747 14.0865L21.3815 14.8135L22.6254 12.7375Z" fill="white"/>
</svg>
