<svg width="80" height="32" viewBox="0 0 80 32" fill="none" xmlns="http://www.w3.org/2000/svg">
<path d="M32.185 18.084C31.673 18.084 31.267 17.94 30.967 17.652C30.667 17.36 30.517 16.94 30.517 16.392V15.408C30.517 14.86 30.667 14.442 30.967 14.154C31.267 13.862 31.673 13.716 32.185 13.716C32.689 13.716 33.077 13.856 33.349 14.136C33.625 14.416 33.763 14.798 33.763 15.282V15.318H33.121V15.264C33.121 14.98 33.043 14.748 32.887 14.568C32.735 14.388 32.501 14.298 32.185 14.298C31.865 14.298 31.615 14.396 31.435 14.592C31.255 14.784 31.165 15.052 31.165 15.396V16.404C31.165 16.744 31.255 17.012 31.435 17.208C31.615 17.404 31.865 17.502 32.185 17.502C32.501 17.502 32.735 17.412 32.887 17.232C33.043 17.048 33.121 16.816 33.121 16.536V16.434H33.763V16.518C33.763 17.002 33.625 17.384 33.349 17.664C33.077 17.944 32.689 18.084 32.185 18.084ZM34.3604 18V13.8H35.5784L36.4964 17.568H36.5924L37.5104 13.8H38.7284V18H38.0984V14.256H38.0024L37.0904 18H35.9984L35.0864 14.256H34.9904V18H34.3604ZM42.4539 18.084C41.9419 18.084 41.5359 17.94 41.2359 17.652C40.9359 17.36 40.7859 16.94 40.7859 16.392V15.408C40.7859 14.86 40.9359 14.442 41.2359 14.154C41.5359 13.862 41.9419 13.716 42.4539 13.716C42.9579 13.716 43.3459 13.856 43.6179 14.136C43.8939 14.416 44.0319 14.798 44.0319 15.282V15.318H43.3899V15.264C43.3899 14.98 43.3119 14.748 43.1559 14.568C43.0039 14.388 42.7699 14.298 42.4539 14.298C42.1339 14.298 41.8839 14.396 41.7039 14.592C41.5239 14.784 41.4339 15.052 41.4339 15.396V16.404C41.4339 16.744 41.5239 17.012 41.7039 17.208C41.8839 17.404 42.1339 17.502 42.4539 17.502C42.7699 17.502 43.0039 17.412 43.1559 17.232C43.3119 17.048 43.3899 16.816 43.3899 16.536V16.434H44.0319V16.518C44.0319 17.002 43.8939 17.384 43.6179 17.664C43.3459 17.944 42.9579 18.084 42.4539 18.084ZM46.0333 18.084C45.7373 18.084 45.4733 18.024 45.2413 17.904C45.0133 17.78 44.8333 17.604 44.7013 17.376C44.5693 17.148 44.5033 16.878 44.5033 16.566V16.476C44.5033 16.164 44.5693 15.896 44.7013 15.672C44.8333 15.444 45.0133 15.268 45.2413 15.144C45.4733 15.02 45.7373 14.958 46.0333 14.958C46.3293 14.958 46.5933 15.02 46.8253 15.144C47.0573 15.268 47.2393 15.444 47.3713 15.672C47.5033 15.896 47.5693 16.164 47.5693 16.476V16.566C47.5693 16.878 47.5033 17.148 47.3713 17.376C47.2393 17.604 47.0573 17.78 46.8253 17.904C46.5933 18.024 46.3293 18.084 46.0333 18.084ZM46.0333 17.532C46.3053 17.532 46.5253 17.446 46.6933 17.274C46.8653 17.098 46.9513 16.856 46.9513 16.548V16.494C46.9513 16.186 46.8673 15.946 46.6993 15.774C46.5313 15.598 46.3093 15.51 46.0333 15.51C45.7653 15.51 45.5453 15.598 45.3733 15.774C45.2053 15.946 45.1213 16.186 45.1213 16.494V16.548C45.1213 16.856 45.2053 17.098 45.3733 17.274C45.5453 17.446 45.7653 17.532 46.0333 17.532ZM48.2187 18V15.042H48.8247V15.486H48.9207C48.9767 15.366 49.0767 15.254 49.2207 15.15C49.3647 15.046 49.5787 14.994 49.8627 14.994C50.0867 14.994 50.2847 15.044 50.4567 15.144C50.6327 15.244 50.7707 15.386 50.8707 15.57C50.9707 15.75 51.0207 15.968 51.0207 16.224V18H50.4027V16.272C50.4027 16.016 50.3387 15.828 50.2107 15.708C50.0827 15.584 49.9067 15.522 49.6827 15.522C49.4267 15.522 49.2207 15.606 49.0647 15.774C48.9127 15.942 48.8367 16.186 48.8367 16.506V18H48.2187ZM53.0021 18.084C52.6261 18.084 52.3141 18 52.0661 17.832C51.8181 17.664 51.6661 17.41 51.6101 17.07L52.1861 16.932C52.2181 17.096 52.2721 17.226 52.3481 17.322C52.4241 17.418 52.5181 17.486 52.6301 17.526C52.7461 17.566 52.8701 17.586 53.0021 17.586C53.1981 17.586 53.3481 17.548 53.4521 17.472C53.5601 17.396 53.6141 17.298 53.6141 17.178C53.6141 17.058 53.5641 16.97 53.4641 16.914C53.3641 16.858 53.2161 16.812 53.0201 16.776L52.8161 16.74C52.6161 16.704 52.4341 16.652 52.2701 16.584C52.1061 16.516 51.9761 16.422 51.8801 16.302C51.7841 16.182 51.7361 16.028 51.7361 15.84C51.7361 15.56 51.8401 15.344 52.0481 15.192C52.2561 15.036 52.5321 14.958 52.8761 14.958C53.2081 14.958 53.4801 15.034 53.6921 15.186C53.9081 15.334 54.0481 15.536 54.1121 15.792L53.5361 15.954C53.5001 15.774 53.4241 15.648 53.3081 15.576C53.1921 15.5 53.0481 15.462 52.8761 15.462C52.7081 15.462 52.5761 15.494 52.4801 15.558C52.3841 15.618 52.3361 15.704 52.3361 15.816C52.3361 15.936 52.3821 16.024 52.4741 16.08C52.5701 16.136 52.6981 16.178 52.8581 16.206L53.0681 16.242C53.2801 16.278 53.4741 16.328 53.6501 16.392C53.8261 16.456 53.9641 16.548 54.0641 16.668C54.1681 16.788 54.2201 16.948 54.2201 17.148C54.2201 17.444 54.1101 17.674 53.8901 17.838C53.6701 18.002 53.3741 18.084 53.0021 18.084ZM55.9565 18.054C55.7325 18.054 55.5325 18.004 55.3565 17.904C55.1805 17.804 55.0425 17.662 54.9425 17.478C54.8425 17.294 54.7925 17.074 54.7925 16.818V15.042H55.4105V16.776C55.4105 17.032 55.4745 17.222 55.6025 17.346C55.7305 17.466 55.9085 17.526 56.1365 17.526C56.3885 17.526 56.5905 17.442 56.7425 17.274C56.8985 17.102 56.9765 16.856 56.9765 16.536V15.042H57.5945V18H56.9885V17.556H56.8925C56.8365 17.676 56.7365 17.79 56.5925 17.898C56.4485 18.002 56.2365 18.054 55.9565 18.054ZM58.388 18V13.8H59.006V18H58.388ZM60.9132 18C60.7332 18 60.5892 17.946 60.4812 17.838C60.3772 17.73 60.3252 17.586 60.3252 17.406V15.564H59.5092V15.042H60.3252V14.064H60.9432V15.042H61.8252V15.564H60.9432V17.298C60.9432 17.418 60.9992 17.478 61.1112 17.478H61.7292V18H60.9132ZM63.3434 18.084C63.1314 18.084 62.9414 18.048 62.7734 17.976C62.6094 17.904 62.4774 17.798 62.3774 17.658C62.2814 17.518 62.2334 17.348 62.2334 17.148C62.2334 16.944 62.2814 16.776 62.3774 16.644C62.4774 16.508 62.6114 16.406 62.7794 16.338C62.9514 16.27 63.1454 16.236 63.3614 16.236H64.2614V16.044C64.2614 15.872 64.2094 15.734 64.1054 15.63C64.0014 15.526 63.8414 15.474 63.6254 15.474C63.4134 15.474 63.2514 15.524 63.1394 15.624C63.0274 15.724 62.9534 15.854 62.9174 16.014L62.3414 15.828C62.3894 15.668 62.4654 15.524 62.5694 15.396C62.6774 15.264 62.8194 15.158 62.9954 15.078C63.1714 14.998 63.3834 14.958 63.6314 14.958C64.0154 14.958 64.3174 15.056 64.5374 15.252C64.7574 15.448 64.8674 15.726 64.8674 16.086V17.304C64.8674 17.424 64.9234 17.484 65.0354 17.484H65.2874V18H64.8254C64.6854 18 64.5714 17.964 64.4834 17.892C64.3954 17.82 64.3514 17.722 64.3514 17.598V17.58H64.2614C64.2294 17.64 64.1814 17.71 64.1174 17.79C64.0534 17.87 63.9594 17.94 63.8354 18C63.7114 18.056 63.5474 18.084 63.3434 18.084ZM63.4334 17.574C63.6814 17.574 63.8814 17.504 64.0334 17.364C64.1854 17.22 64.2614 17.024 64.2614 16.776V16.716H63.3974C63.2334 16.716 63.1014 16.752 63.0014 16.824C62.9014 16.892 62.8514 16.994 62.8514 17.13C62.8514 17.266 62.9034 17.374 63.0074 17.454C63.1114 17.534 63.2534 17.574 63.4334 17.574ZM65.7683 18V15.042H66.3743V15.486H66.4703C66.5263 15.366 66.6263 15.254 66.7703 15.15C66.9143 15.046 67.1283 14.994 67.4123 14.994C67.6363 14.994 67.8343 15.044 68.0063 15.144C68.1823 15.244 68.3203 15.386 68.4203 15.57C68.5203 15.75 68.5703 15.968 68.5703 16.224V18H67.9523V16.272C67.9523 16.016 67.8883 15.828 67.7603 15.708C67.6323 15.584 67.4563 15.522 67.2323 15.522C66.9763 15.522 66.7703 15.606 66.6143 15.774C66.4623 15.942 66.3863 16.186 66.3863 16.506V18H65.7683ZM70.7137 18.084C70.4297 18.084 70.1717 18.024 69.9397 17.904C69.7117 17.784 69.5297 17.61 69.3937 17.382C69.2617 17.154 69.1957 16.88 69.1957 16.56V16.482C69.1957 16.162 69.2617 15.89 69.3937 15.666C69.5297 15.438 69.7117 15.264 69.9397 15.144C70.1717 15.02 70.4297 14.958 70.7137 14.958C70.9977 14.958 71.2397 15.01 71.4397 15.114C71.6397 15.218 71.7997 15.356 71.9197 15.528C72.0437 15.7 72.1237 15.89 72.1597 16.098L71.5597 16.224C71.5397 16.092 71.4977 15.972 71.4337 15.864C71.3697 15.756 71.2797 15.67 71.1637 15.606C71.0477 15.542 70.9017 15.51 70.7257 15.51C70.5537 15.51 70.3977 15.55 70.2577 15.63C70.1217 15.706 70.0137 15.818 69.9337 15.966C69.8537 16.11 69.8137 16.286 69.8137 16.494V16.548C69.8137 16.756 69.8537 16.934 69.9337 17.082C70.0137 17.23 70.1217 17.342 70.2577 17.418C70.3977 17.494 70.5537 17.532 70.7257 17.532C70.9857 17.532 71.1837 17.466 71.3197 17.334C71.4557 17.198 71.5417 17.026 71.5777 16.818L72.1777 16.956C72.1297 17.16 72.0437 17.348 71.9197 17.52C71.7997 17.692 71.6397 17.83 71.4397 17.934C71.2397 18.034 70.9977 18.084 70.7137 18.084ZM73.1125 19.2V18.66H74.7625C74.8745 18.66 74.9305 18.6 74.9305 18.48V17.568H74.8345C74.7985 17.648 74.7425 17.726 74.6665 17.802C74.5945 17.874 74.4965 17.934 74.3725 17.982C74.2485 18.03 74.0925 18.054 73.9045 18.054C73.6805 18.054 73.4805 18.004 73.3045 17.904C73.1285 17.804 72.9905 17.662 72.8905 17.478C72.7905 17.294 72.7405 17.076 72.7405 16.824V15.042H73.3585V16.776C73.3585 17.032 73.4225 17.222 73.5505 17.346C73.6785 17.466 73.8565 17.526 74.0845 17.526C74.3365 17.526 74.5385 17.442 74.6905 17.274C74.8465 17.106 74.9245 16.862 74.9245 16.542V15.042H75.5425V18.606C75.5425 18.786 75.4885 18.93 75.3805 19.038C75.2765 19.146 75.1325 19.2 74.9485 19.2H73.1125Z" fill="black"/>
<path d="M28 16C28 20.9706 22.6274 25 16 25C9.37258 25 4 20.9706 4 16C4 11.0294 9.37258 7 16 7C22.6274 7 28 11.0294 28 16Z" fill="#00B1A7"/>
<path d="M28 16C28 20.9706 22.6274 25 16 25C9.37258 25 4 20.9706 4 16C4 11.0294 9.37258 7 16 7C22.6274 7 28 11.0294 28 16Z" fill="#00B1A7"/>
<path fill-rule="evenodd" clip-rule="evenodd" d="M19.6254 12.7375C20.439 11.3797 22.3412 12.0205 22.3412 13.6524V18.3507H27.5865C27.3798 18.9252 27.0991 19.4771 26.7526 20H22.3412C21.5225 20 20.8588 19.2616 20.8588 18.3507V13.6524L19.6149 15.7284C19.2002 16.4205 18.3873 16.6607 17.7186 16.2887L16.4118 15.5617V18.3507C16.4118 19.2616 15.7481 20 14.9294 20H10.4824C9.66367 20 9 19.2616 9 18.3507V15.052C9 14.1411 9.66367 13.4027 10.4824 13.4027H12.7059C13.1152 13.4027 13.4471 13.7719 13.4471 14.2273C13.4471 14.6828 13.1152 15.052 12.7059 15.052L10.4824 15.052V18.3507H14.9294V15.5617C14.9294 14.3356 16.0891 13.5382 17.0747 14.0865L18.3815 14.8135L19.6254 12.7375Z" fill="white"/>
</svg>
